<svg width="360" height="110" viewBox="0 0 360 110" fill="none" xmlns="http://www.w3.org/2000/svg">
<path d="M137.209 24.8107C-46.0618 -51.8069 2.95236 130.382 2.95236 130.382V133.416C16.8042 141.304 45.9996 157.079 51.9665 157.079C57.9335 157.079 154.967 164.36 202.738 168L387.074 147.371L394 118.248C394 118.248 320.479 101.428 137.209 24.8107Z" fill="#2699FB" fill-opacity="0.8"/>
<path d="M137.911 34.4884C-38.4348 -32.6703 8.72746 127.027 8.72746 127.027V129.686C22.0559 136.599 50.1482 150.427 55.8897 150.427C61.6312 150.427 154.999 156.809 200.965 160L378.336 141.918L385 116.39C385 116.39 314.257 101.647 137.911 34.4884Z" fill="#2699FB"/>
<mask id="mask0" mask-type="alpha" maskUnits="userSpaceOnUse" x="16" y="0" width="360" height="122">
<rect x="16" width="360" height="122" fill="#C4C4C4"/>
</mask>
<g mask="url(#mask0)">
</g>
</svg>
